# xmcd
#
# Track frame offsets:
#	150
#	12722
#	26716
#	39960
#	51640
#	67503
#	81381
#	93398
#	110256
#	123102
#	135339
#	147086
#	156200
#	168897
#	179251
#	196064
#	208604
#	222772
#	234813
#	247371
#	258571
#
# Disc length: 3626 seconds
#
# Revision: 0
# Processed by: cddbd v1.4PL0 Copyright (c) Steve Scherf et al.
# Submitted via: EasyCDDAExtractor 4.6.9.1
#
DISCID=1e0e2815
DTITLE=Johnny Cash - Reader's Digest Classics-Disc 3
DYEAR=1999
DGENRE=Country
TTITLE0=Jackson
TTITLE1=Don't Take Your Guns To Town
TTITLE2=Fourty Shades Of Green
TTITLE3=In Them Old Cottonfields Back Home
TTITLE4=The Night They Drove Old Dixie Down
TTITLE5=It Ain't Me, Babe
TTITLE6=Wabash Cannonball
TTITLE7=The City Of New Orleans
TTITLE8=My Old Kentucky Home
TTITLE9=I'm So Lonesome I Could Cry
TTITLE10=I Still Miss Someone
TTITLE11=Delia's Gone
TTITLE12=Green Grow The Lilacs
TTITLE13=Busted
TTITLE14=(Ghost) Riders In The Sky
TTITLE15=Wreck Of The Old '97
TTITLE16=Orange Blossom Special
TTITLE17=When It's Springtime In Alaska
TTITLE18=The Lady Came From Baltimore
TTITLE19=Keep on The Sunny Side
TTITLE20=Let There Be Country
EXTD=
EXTT0=
EXTT1=
EXTT2=
EXTT3=
EXTT4=
EXTT5=
EXTT6=
EXTT7=
EXTT8=
EXTT9=
EXTT10=
EXTT11=
EXTT12=
EXTT13=
EXTT14=
EXTT15=
EXTT16=
EXTT17=
EXTT18=
EXTT19=
EXTT20=
PLAYORDER=
